<!-- Generator: Adobe Illustrator 18.0.0, SVG Export Plug-In . SVG Version: 6.00 Build 0)  -->
<svg xmlns="http://www.w3.org/2000/svg" xmlns:xlink="http://www.w3.org/1999/xlink" version="1.1" id="Capa_1" x="0px" y="0px" viewBox="0 0 368.294 368.294" style="enable-background:new 0 0 368.294 368.294;" xml:space="preserve">
<g>
	<g>
		<path style="fill:#84BD93;" d="M97.625,44.814c-0.201-0.152-0.396-0.31-0.59-0.471C97.229,44.505,97.423,44.662,97.625,44.814z"/>
		<path style="fill:#84BD93;" d="M100.166,46.399c-0.278-0.142-0.553-0.29-0.823-0.447C99.613,46.109,99.887,46.256,100.166,46.399z    "/>
		<path style="fill:#84BD93;" d="M112.458,84.253c0.154,0.181,0.315,0.352,0.477,0.526    C112.774,84.606,112.612,84.433,112.458,84.253z"/>
		<path style="fill:#84BD93;" d="M114.706,59.755c-0.061,0.097-0.122,0.195-0.187,0.289    C114.584,59.95,114.645,59.853,114.706,59.755z"/>
		<path style="fill:#84BD93;" d="M115.765,56.901c-0.004,0.027-0.006,0.055-0.011,0.082    C115.759,56.956,115.761,56.929,115.765,56.901z"/>
		<path style="fill:#84BD93;" d="M114.396,86.178c0.134,0.114,0.258,0.238,0.395,0.348C114.653,86.416,114.53,86.291,114.396,86.178    z"/>
		<path style="fill:#84BD93;" d="M115.356,58.482c-0.006,0.015-0.014,0.03-0.02,0.045C115.342,58.512,115.35,58.498,115.356,58.482z    "/>
		<path style="fill:#84BD93;" d="M137.843,31.283c0.485,0.427,0.963,0.871,1.441,1.313C138.806,32.154,138.328,31.71,137.843,31.283    z"/>
		<path style="fill:#84BD93;" d="M93.544,40.435c-0.045-0.069-0.086-0.14-0.129-0.21C93.459,40.295,93.499,40.365,93.544,40.435z"/>
		<path style="fill:#84BD93;" d="M134.423,28.427c0.412,0.324,0.815,0.67,1.223,1.004C135.238,29.097,134.835,28.751,134.423,28.427    z"/>
		<path style="fill:#84BD93;" d="M94.989,42.338c0.177,0.206,0.359,0.404,0.546,0.602C95.348,42.744,95.166,42.543,94.989,42.338z"/>
		<path style="fill:#84BD93;" d="M92.299,38.067c-0.091-0.207-0.177-0.417-0.259-0.629C92.122,37.651,92.208,37.859,92.299,38.067z"/>
		<path style="fill:#84BD93;" d="M142.65,35.875c-0.492-0.507-0.987-1.005-1.487-1.495C141.663,34.87,142.158,35.368,142.65,35.875z    "/>
		<path style="fill:#84BD93;" d="M146.765,116.806c0.154,0.181,0.315,0.352,0.476,0.526    C147.08,117.158,146.919,116.985,146.765,116.806z"/>
		<path style="fill:#84BD93;" d="M145.143,114.566c0.051,0.085,0.092,0.176,0.144,0.26    C145.235,114.742,145.194,114.65,145.143,114.566z"/>
		<path style="fill:#84BD93;" d="M149.097,119.078c-0.137-0.109-0.261-0.234-0.395-0.347    C148.837,118.844,148.96,118.968,149.097,119.078z"/>
		<path style="fill:#84BD93;" d="M143.851,111.912c0.082,0.212,0.168,0.419,0.258,0.627    C144.019,112.333,143.933,112.124,143.851,111.912z"/>
		<path style="fill:#84BD93;" d="M151.732,120.783c-0.218-0.116-0.438-0.228-0.65-0.353    C151.294,120.556,151.513,120.666,151.732,120.783z"/>
		<path style="fill:#84BD93;" d="M176.163,102.619c-7.147-28.385-18.406-50.87-32.919-66.111c-1.555-1.272-3.135-2.483-4.751-3.604    c-13.2-9.152-24.588-10.526-27.496-10.731c-8.617,2.304-14.023,11.019-12.136,19.839c0.35,1.634,0.953,3.164,1.735,4.577    c2.319,1.105,4.881,1.739,7.563,1.667c3.125-0.055,5.927,1.754,7.126,4.613c0.338,0.806,0.511,1.647,0.557,2.488    c3.093-0.023,5.858,1.774,7.047,4.609c1.198,2.858,0.518,6.159-1.711,8.314c-4.231,4.088-6.022,9.953-4.795,15.69    c0.35,1.636,0.953,3.166,1.735,4.579c2.195,1.044,4.607,1.676,7.144,1.676c1.186,0,2.383-0.127,3.557-0.379    c1.955-0.417,3.793-1.163,5.467-2.219c1.233-0.777,2.624-1.158,4.007-1.158c1.878,0,3.562,0.702,4.998,2.065    c1.431,1.358,2.129,3.175,2.129,5.042c0,0,0-0.002,0-0.002c0-0.001,0.257-0.008,0.296-0.008c1.878,0,3.832,0.702,5.268,2.065    c2.495,2.367,3.111,6.124,1.433,9.126c-2.003,3.58-2.61,7.758-1.752,11.763c0.35,1.637,0.965,3.168,1.747,4.582    c2.196,1.044,4.613,1.676,7.15,1.676c1.186,0,2.386-0.127,3.561-0.379c4.567-0.977,8.601-3.807,11.064-7.765    C176.483,110.949,177.185,106.682,176.163,102.619z"/>
		<path style="fill:#84BD93;" d="M145.771,94.558c-0.004,0.052-0.01,0.105-0.015,0.157C145.761,94.663,145.768,94.61,145.771,94.558    z"/>
		<path style="fill:#84BD93;" d="M110.98,82.273c-0.052-0.083-0.093-0.174-0.144-0.258C110.888,82.099,110.928,82.19,110.98,82.273z    "/>
		<path style="fill:#84BD93;" d="M117.426,88.23c-0.218-0.116-0.439-0.228-0.651-0.353C116.988,88.003,117.207,88.114,117.426,88.23    z"/>
		<path style="fill:#84BD93;" d="M145.338,96.607c-0.133,0.358-0.286,0.712-0.477,1.054    C145.051,97.318,145.207,96.966,145.338,96.607z"/>
		<path style="fill:#84BD93;" d="M109.803,79.989c-0.09-0.208-0.177-0.417-0.259-0.629    C109.626,79.573,109.713,79.781,109.803,79.989z"/>
		<path style="fill:#84BD93;" d="M145.631,95.568c-0.031,0.143-0.073,0.283-0.112,0.424    C145.557,95.851,145.602,95.711,145.631,95.568z"/>
	</g>
	<g>
		<path style="fill:#84BD93;" d="M227.195,34.313c-0.546,0.534-1.086,1.078-1.623,1.632    C226.108,35.391,226.65,34.847,227.195,34.313z"/>
		<path style="fill:#84BD93;" d="M228.905,32.688c0.529-0.491,1.059-0.981,1.595-1.453    C229.964,31.706,229.435,32.197,228.905,32.688z"/>
		<path style="fill:#84BD93;" d="M237.401,25.563c13.193-9.147,24.577-10.975,27.491-10.975c-0.002,0-0.004,0-0.007,0    c-2.82,0-14.243,1.793-27.488,10.975c-0.185,0.128-0.362,0.274-0.545,0.404C237.036,25.836,237.215,25.691,237.401,25.563z"/>
		<path style="fill:#84BD93;" d="M217.19,120.441c-0.199,0.117-0.404,0.221-0.608,0.33    C216.786,120.661,216.991,120.558,217.19,120.441z"/>
		<path style="fill:#84BD93;" d="M224.197,112.503c0.079-0.184,0.156-0.367,0.228-0.555    C224.352,112.135,224.275,112.319,224.197,112.503z"/>
		<path style="fill:#84BD93;" d="M219.536,118.776c-0.111,0.094-0.214,0.198-0.328,0.289    C219.322,118.974,219.424,118.87,219.536,118.776z"/>
		<path style="fill:#84BD93;" d="M221.075,117.303c0.145-0.157,0.29-0.311,0.429-0.474    C221.365,116.992,221.22,117.147,221.075,117.303z"/>
		<path style="fill:#84BD93;" d="M272.869,19.888c-0.109-0.117-0.225-0.224-0.336-0.338    C272.644,19.663,272.761,19.772,272.869,19.888z"/>
		<path style="fill:#84BD93;" d="M274.82,22.429c-0.046-0.073-0.082-0.15-0.129-0.222c-0.048-0.075-0.114-0.134-0.163-0.208    C274.624,22.144,274.728,22.282,274.82,22.429z"/>
		<path style="fill:#84BD93;" d="M275.825,24.296c0.16,0.345,0.321,0.691,0.458,1.047C276.146,24.989,275.986,24.643,275.825,24.296    z"/>
		<path style="fill:#84BD93;" d="M277.406,31.608c0.032-2.063-0.331-4.099-1.043-6.031    C277.063,27.478,277.434,29.516,277.406,31.608z"/>
		<path style="fill:#84BD93;" d="M270.197,17.568c0.121,0.085,0.248,0.163,0.367,0.251    C270.444,17.731,270.319,17.653,270.197,17.568z"/>
		<path style="fill:#84BD93;" d="M275.145,22.989c0.164,0.286,0.331,0.571,0.478,0.866C275.476,23.561,275.31,23.276,275.145,22.989    z"/>
		<path style="fill:#84BD93;" d="M267.63,16.082c0.08,0.037,0.164,0.067,0.243,0.105C267.794,16.149,267.711,16.12,267.63,16.082z"/>
		<path style="fill:#84BD93;" d="M223.015,114.805c0.031-0.05,0.055-0.105,0.086-0.155    C223.07,114.701,223.046,114.755,223.015,114.805z"/>
		<path style="fill:#84BD93;" d="M232.474,29.572c0.479-0.394,0.952-0.8,1.437-1.18C233.427,28.772,232.953,29.178,232.474,29.572z"/>
		<path style="fill:#84BD93;" d="M271.536,44.097c-0.407,0.352-0.829,0.683-1.267,0.995    C270.708,44.778,271.129,44.45,271.536,44.097z"/>
		<path style="fill:#84BD93;" d="M267.996,46.469c0.371-0.185,0.732-0.38,1.088-0.591C268.729,46.088,268.366,46.284,267.996,46.469    z"/>
		<path style="fill:#84BD93;" d="M269.429,42.012c1.887-8.82-3.519-17.535-12.136-19.839c-2.908,0.205-14.296,1.579-27.496,10.731    c-1.621,1.123-3.206,2.338-4.765,3.614c-14.507,15.242-25.763,37.723-32.907,66.103c-1.022,4.061-0.322,8.328,1.971,12.013    c2.463,3.957,6.495,6.787,11.065,7.766c1.174,0.252,2.371,0.379,3.556,0.379c2.539,0,4.952-0.633,7.149-1.678    c0.781-1.413,1.384-2.943,1.734-4.579c0.858-4.005,0.228-8.183-1.774-11.763c-1.678-3.001-1.107-6.759,1.388-9.126    c1.436-1.363,3.3-2.065,5.178-2.065c0.037,0,0.075,0.007,0.112,0.007c0.104-1.866,0.878-3.681,2.308-5.038    c2.493-2.369,6.274-2.743,9.185-0.909c1.676,1.056,3.515,1.802,5.466,2.218c1.177,0.253,2.374,0.38,3.56,0.38    c2.539,0,4.952-0.632,7.148-1.678c0.781-1.413,1.384-2.942,1.734-4.577c1.227-5.736-0.565-11.602-4.795-15.69    c-2.229-2.155-2.908-5.456-1.711-8.314c1.188-2.834,3.952-4.629,7.043-4.609c0.046-0.841,0.219-1.682,0.557-2.488    c1.198-2.859,4.011-4.66,7.126-4.613c2.687,0.076,5.246-0.553,7.559-1.651C268.473,45.188,269.078,43.653,269.429,42.012z"/>
		<path style="fill:#84BD93;" d="M257.32,82.256c0.034-0.055,0.061-0.116,0.095-0.171C257.381,82.14,257.355,82.201,257.32,82.256z"/>
		<path style="fill:#84BD93;" d="M274.668,40.544c0.085-0.13,0.167-0.26,0.249-0.393C274.835,40.284,274.753,40.414,274.668,40.544z    "/>
		<path style="fill:#84BD93;" d="M258.501,79.957c0.081-0.188,0.159-0.375,0.233-0.566C258.66,79.582,258.582,79.77,258.501,79.957z    "/>
		<path style="fill:#84BD93;" d="M275.997,38.055c0.085-0.197,0.167-0.394,0.245-0.595C276.164,37.66,276.083,37.858,275.997,38.055    z"/>
		<path style="fill:#84BD93;" d="M272.681,43.022c0.234-0.244,0.461-0.491,0.68-0.75C273.141,42.529,272.915,42.779,272.681,43.022z    "/>
		<path style="fill:#84BD93;" d="M252.421,56.955c0-0.002,0-0.003,0-0.005C252.421,56.952,252.421,56.953,252.421,56.955z"/>
		<path style="fill:#84BD93;" d="M223.285,97.348c-0.118-0.237-0.234-0.474-0.325-0.718    C223.05,96.874,223.167,97.111,223.285,97.348z"/>
		<path style="fill:#84BD93;" d="M253.512,86.515c0.119-0.095,0.225-0.203,0.342-0.301C253.737,86.312,253.631,86.42,253.512,86.515    z"/>
		<path style="fill:#84BD93;" d="M222.736,95.874c-0.024-0.091-0.052-0.181-0.072-0.273    C222.684,95.693,222.713,95.782,222.736,95.874z"/>
		<path style="fill:#84BD93;" d="M255.378,84.755c0.147-0.16,0.295-0.316,0.436-0.481C255.673,84.438,255.525,84.596,255.378,84.755    z"/>
		<path style="fill:#84BD93;" d="M251.5,87.886c-0.201,0.118-0.409,0.224-0.615,0.334C251.092,88.109,251.299,88.005,251.5,87.886z"/>
		<path style="fill:#84BD93;" d="M253.754,60.023c-0.053-0.078-0.103-0.158-0.154-0.238C253.651,59.866,253.7,59.944,253.754,60.023    z"/>
		<path style="fill:#84BD93;" d="M222.524,94.643c-0.001-0.013-0.003-0.026-0.004-0.038    C222.521,94.617,222.523,94.63,222.524,94.643z"/>
	</g>
	<g>
		<path style="fill:#CE593F;" d="M189.002,180.038c-1.606-0.097-3.223-0.163-4.859-0.163    C185.78,179.875,187.397,179.941,189.002,180.038z"/>
		<path style="fill:#CE593F;" d="M189.944,180.096c1.551,0.112,3.087,0.266,4.604,0.466    C193.03,180.362,191.495,180.208,189.944,180.096z"/>
		<path style="fill:#CE593F;" d="M199.752,181.425c-1.45-0.292-2.922-0.537-4.409-0.748    C196.83,180.888,198.303,181.133,199.752,181.425z"/>
		<path style="fill:#CE593F;" d="M219.088,188.21c1.331,0.695,2.636,1.421,3.898,2.191c-8.654-3.486-18.398-5.688-28.705-5.688    c-24.364,0-45.613,10.874-56.608,26.874h15.271c4.154,0,7.521,3.346,7.521,7.5c0,4.154-3.367,7.5-7.521,7.5h-22.069    c-1.126,4-1.176,9.287-1.176,10.965c0,4.439,1.827,8.035,3.203,14.035h27.494c4.154,0,7.521,2.346,7.521,6.5    c0,4.154-3.367,6.5-7.521,6.5h-27.031l6.966,0.015l13.558,22.985h19.96c4.154,0,7.521,3.846,7.521,8s-3.367,8-7.521,8h-10.293    l20.586,32.504l56.286-78.451c0.025-0.034,0.054-0.078,0.079-0.111c0.022-0.033,0.04-0.075,0.063-0.108    c5.335-7.715,8.154-16.484,8.154-25.352C248.726,213.692,236.901,197.512,219.088,188.21z"/>
		<path style="fill:#CE593F;" d="M209.66,184.13c-1.416-0.494-2.862-0.942-4.328-1.355    C206.798,183.188,208.244,183.636,209.66,184.13z"/>
		<path style="fill:#CE593F;" d="M214.173,185.881c-1.345-0.574-2.718-1.109-4.117-1.606    C211.455,184.773,212.828,185.308,214.173,185.881z"/>
		<path style="fill:#CE593F;" d="M204.556,182.562c-1.478-0.399-2.973-0.767-4.497-1.08    C201.582,181.796,203.079,182.163,204.556,182.562z"/>
		<path style="fill:#CE593F;" d="M218.545,187.929c-1.319-0.674-2.665-1.315-4.046-1.912    C215.88,186.613,217.226,187.255,218.545,187.929z"/>
	</g>
	<path style="fill:#3F2D20;" d="M287.318,14.032c-4.635-7.158-11.779-12.081-20.117-13.866C266.708,0.061,265.601,0,265.601,0   c-2.372,0-54.018,0.966-81.462,77.19C156.694,0.978,105.057,0,102.685,0c0,0-1.106,0.061-1.599,0.166   C83.874,3.848,72.868,20.848,76.55,38.063c2.257,10.544,9.706,19.006,19.287,22.905c-2.493,5.914-3.162,12.527-1.766,19.053   c3.132,14.63,16.25,25.247,31.192,25.246c0.805,0,1.611-0.031,2.416-0.092c-0.056,2.467,0.175,4.949,0.699,7.397   c3.132,14.63,16.25,25.248,31.193,25.247c2.242,0,4.498-0.24,6.704-0.712c3.692-0.79,7.186-2.244,10.348-4.222v32.257   c-40.389,3.212-72.102,31.995-72.102,66.925c0,11.95,3.749,23.682,10.84,33.929c0.044,0.064,0.096,0.117,0.141,0.179   c0.047,0.071,0.087,0.143,0.137,0.212l60.984,84.974v9.412c0,4.154,3.367,7.521,7.521,7.521c4.154,0,7.521-3.367,7.521-7.521   v-9.411l60.985-84.975c0.047-0.066,0.085-0.135,0.13-0.201c0.054-0.073,0.113-0.14,0.165-0.215   c7.081-10.241,10.824-21.965,10.824-33.904c0-34.93-31.715-63.713-72.103-66.925v-32.257c3.162,1.977,6.657,3.432,10.35,4.222   c2.207,0.472,4.463,0.712,6.704,0.712c14.942,0,28.061-10.618,31.192-25.246c0.524-2.449,0.755-4.932,0.699-7.398   c0.806,0.061,1.612,0.092,2.417,0.092c14.943,0,28.06-10.617,31.192-25.247c1.395-6.526,0.727-13.138-1.767-19.051   c9.581-3.9,17.029-12.36,19.287-22.906C293.521,29.725,291.952,21.19,287.318,14.032z M260.127,48.256   c-3.115-0.047-5.928,1.754-7.126,4.613c-1.198,2.858-0.518,6.16,1.711,8.314c4.231,4.087,6.023,9.953,4.796,15.69   c-1.656,7.736-8.588,13.352-16.483,13.352c-1.186,0-2.383-0.127-3.56-0.38c-1.952-0.416-3.791-1.162-5.466-2.218   c-2.911-1.834-6.692-1.46-9.185,0.909c-2.494,2.367-3.065,6.124-1.387,9.126c2.002,3.578,2.631,7.756,1.773,11.763   c-1.656,7.737-8.588,13.353-16.483,13.353c-1.186,0-2.383-0.127-3.557-0.379c-4.569-0.978-8.602-3.808-11.065-7.766   c-2.294-3.685-2.994-7.952-1.971-12.013c9.063-36.002,24.718-62.563,45.271-76.815c13.245-9.183,24.668-10.535,27.488-10.732   c4.052,1.079,7.511,3.588,9.806,7.133c2.451,3.785,3.282,8.298,2.337,12.708C275.344,42.786,268.206,48.485,260.127,48.256z    M240.572,257.416c-0.023,0.033-0.04,0.068-0.063,0.102c-0.026,0.033-0.054,0.065-0.079,0.099l-56.286,78.427l-23.363-32.553   h13.069c4.154,0,7.521-3.367,7.521-7.521c0-4.154-3.367-7.521-7.521-7.521h-23.864l-16.62-23.158h27.031   c4.154,0,7.521-3.367,7.521-7.521c0-4.154-3.367-7.521-7.521-7.521h-36.772c-2.67-5.792-4.063-11.962-4.063-18.184   c0-1.678,0.108-3.337,0.3-4.977h33.083c4.154,0,7.521-3.367,7.521-7.521c0-4.154-3.367-7.521-7.521-7.521h-28.436   c9.736-18.872,32.797-32.174,59.634-32.174c35.611,0,64.582,23.413,64.582,52.192C248.726,240.935,245.906,249.702,240.572,257.416   z M159.57,122.778c-7.896,0-14.828-5.615-16.484-13.354c-0.858-4.005-0.228-8.183,1.774-11.763   c1.677-3.002,1.106-6.759-1.389-9.126c-1.437-1.363-3.3-2.065-5.178-2.065c-1.383,0-2.774,0.381-4.007,1.158   c-1.675,1.056-3.513,1.802-5.467,2.219c-1.174,0.252-2.371,0.379-3.557,0.379c-7.895,0-14.827-5.615-16.483-13.352   c-1.227-5.736,0.565-11.602,4.795-15.69c2.229-2.155,2.909-5.456,1.711-8.314c-1.199-2.859-4.001-4.668-7.126-4.613   c-8.035,0.214-15.217-5.47-16.901-13.341c-1.887-8.82,3.519-17.535,12.136-19.839c2.907,0.205,14.296,1.579,27.496,10.731   c20.554,14.25,36.209,40.812,45.273,76.811c1.021,4.063,0.321,8.33-1.973,12.016c-2.463,3.957-6.495,6.787-11.063,7.765   C161.953,122.651,160.756,122.778,159.57,122.778z"/>
</g>
<g>
</g>
<g>
</g>
<g>
</g>
<g>
</g>
<g>
</g>
<g>
</g>
<g>
</g>
<g>
</g>
<g>
</g>
<g>
</g>
<g>
</g>
<g>
</g>
<g>
</g>
<g>
</g>
<g>
</g>
</svg>