<svg xmlns="http://www.w3.org/2000/svg" viewBox="0 0 318.46 122.29"><defs><style>.cls-1{stroke:#fff;}.cls-1,.cls-2,.cls-4{stroke-miterlimit:10;}.cls-1,.cls-2{stroke-width:0.23px;}.cls-2,.cls-4{fill:red;stroke:red;}.cls-3{fill:#020202;}</style></defs><title>Ресурс 1</title><g id="Слой_2" data-name="Слой 2"><g id="Режим_изоляции" data-name="Режим изоляции"><path class="cls-1" d="M15.59,73.45a66.59,66.59,0,0,0-3.4,6.15c-1.11,2.3-2.24,4.48-3.37,6.55a42.81,42.81,0,0,1-3.29,5.19c-1,1.42-2,2.1-2.92,2.1C2,93.43,1.42,93,.91,92S.11,89.38.11,86.88a17,17,0,0,1,1-4.45A63.87,63.87,0,0,1,4,74.92c1.33-2.95,2.95-6.29,4.88-10s4.17-7.74,6.72-12A150.89,150.89,0,0,1,27,36.54,134.2,134.2,0,0,1,40.22,22.08,78.93,78.93,0,0,1,53.6,11.74C58,9.1,61.94,7.8,65.42,7.8a10.26,10.26,0,0,1,6.21,1.76,11.34,11.34,0,0,1,3.71,4.79,25.34,25.34,0,0,1,1.87,7.11c.34,2.72.54,5.58.62,8.59v3.8c0,1.25,0,2.61-.11,4.11q3.4-5.66,7.4-12.25t8.25-12.33a62.16,62.16,0,0,1,8.53-9.5c2.86-2.52,5.7-3.77,8.48-3.77a6.73,6.73,0,0,1,5.36,3.29,21.6,21.6,0,0,1,2.78,6.66,39.67,39.67,0,0,1,1.08,7.51c.11,2.52.17,4.48.17,5.92a84.38,84.38,0,0,1-.62,10.06c-.43,3.54-1,7.09-1.7,10.66a106.08,106.08,0,0,1-2.69,10.63,106.22,106.22,0,0,1-3.69,10c-2,4.28-3.88,7.88-5.53,10.77s-3.12,5.24-4.37,7a23.88,23.88,0,0,1-3,3.71,3.53,3.53,0,0,1-1.76,1.08c-.09,0-.11-.09-.11-.23a4.47,4.47,0,0,1,.51-1.42c.34-.71.74-1.56,1.25-2.55s1-2,1.5-3.15,1-2.24,1.47-3.29c.6-1.64,1.3-3.49,2.1-5.47s1.59-4.2,2.44-6.6c.37-1,.91-2.75,1.62-5s1.42-5,2.1-8,1.28-6.38,1.81-10a75.3,75.3,0,0,0,.79-11.08c0-2.49-.11-4.85-.34-7.11s-.51-4.28-.85-6.09a43.52,43.52,0,0,0-1.08-4.54,10,10,0,0,0-1-2.47A6.83,6.83,0,0,0,106,12.19a34.21,34.21,0,0,0-3.06,3.57c-1,1.39-2.15,2.95-3.29,4.62s-2.21,3.37-3.26,5c-1.5,2.32-3.23,5.22-5.22,8.65s-3.94,6.72-6,9.92a78.47,78.47,0,0,1-5.92,8.25c-1.93,2.3-3.57,3.46-4.9,3.46A4.77,4.77,0,0,1,71,54.11a8,8,0,0,1-1.93-5c-.23-2.64-.4-5.44-.51-8.36s-.2-5.75-.28-8.42-.11-5.1-.17-7.29a40.44,40.44,0,0,0-.28-5,10.23,10.23,0,0,0-.68-2.18c-.28-.74-1.08-1.08-2.35-1.08-2.35,0-5,.94-7.85,2.81a55.57,55.57,0,0,0-9,7.54,125,125,0,0,0-9.44,10.66c-3.15,4-6.18,8.08-9,12.27s-5.47,8.31-7.85,12.36-4.34,7.71-5.92,11Z"/><path class="cls-2" d="M133.26,121.27A63.33,63.33,0,0,1,124.1,120a37.12,37.12,0,0,1-9.95-3.63,23.73,23.73,0,0,1-8-7c-2.18-3-3.29-6.8-3.29-11.48a31.71,31.71,0,0,1,1.36-9.16,40.52,40.52,0,0,1,3.8-8.67A53.31,53.31,0,0,1,113.75,72a69.63,69.63,0,0,1,7.17-7.29,106.36,106.36,0,0,1,13.38-9.95,138.33,138.33,0,0,1,14.49-8c4.85-2.35,9.64-4.37,14.34-6.09s9-3.17,12.87-4.31,7.23-2,10.06-2.55a35.61,35.61,0,0,1,5.92-.85,9.72,9.72,0,0,1,5.36,1.3c1.33.88,2,1.76,2,2.66,0,1.73-1.25,3.2-3.71,4.39-1.22.23-3.2.65-6,1.25s-6.12,1.47-10,2.61-8.25,2.55-13,4.22a152.74,152.74,0,0,0-14.46,6.12,122,122,0,0,0-14.68,8.36,96.25,96.25,0,0,0-13.61,10.89,45.62,45.62,0,0,0-8.7,10.91,24.22,24.22,0,0,0-3.29,12c0,3.63,1.08,6.46,3.23,8.53a19.82,19.82,0,0,0,8,4.59,43.83,43.83,0,0,0,10.32,1.79c3.71.23,7.06.34,10.06.34q5.44,0,11.48-.34c4-.2,8.11-.54,12.25-.94s8.31-.94,12.44-1.53,8.16-1.28,12.08-2l9.16-2,9.16-2.13a26.18,26.18,0,0,1,5.41-.91c.77,0,1.13.14,1.13.45s-.57.79-1.7,1.5a36.78,36.78,0,0,1-4.39,2.38c-1.81.88-3.86,1.76-6.15,2.66s-4.62,1.7-7,2.38c-4.73,1.33-9.3,2.64-13.72,3.83s-8.87,2.27-13.38,3.17-9.24,1.59-14.12,2.07a153.56,153.56,0,0,1-15.82.74,34,34,0,0,1-7.11-.91Z"/><path class="cls-3" d="M124.5,83.74a2.8,2.8,0,0,1,.74-1.9,7.16,7.16,0,0,1,1.93-1.39,16.22,16.22,0,0,1,2.58-.94,26.38,26.38,0,0,1,2.75-.57c.88-.14,1.7-.26,2.41-.31s1.22-.09,1.56-.09h.74a2.42,2.42,0,0,1,1.25.43,1,1,0,0,1,.31.71c0,.45-.34.85-1,1.22h-.51c-.65,0-1.36,0-2.15.09s-1.47.14-2.13.23-1.28.23-2,.4a13.52,13.52,0,0,0-2,.57,6.48,6.48,0,0,0-1.47.77,1.14,1.14,0,0,0-.6.88c0,.31.28.57.82.77a10.17,10.17,0,0,0,1.93.45,19.83,19.83,0,0,0,2.27.2c.79.06,1.39.06,1.84.06.68,0,1.45,0,2.32-.11s1.79-.17,2.69-.31,1.81-.34,2.69-.54a20.17,20.17,0,0,0,2.38-.68,7,7,0,0,0,1.67-.85,1.23,1.23,0,0,0,.62-1,1.38,1.38,0,0,0-.71-.68,5.19,5.19,0,0,0-1.28-.48,19.66,19.66,0,0,0-2.64-.54c-.62-.09-1-.17-1-.28s.2-.2.6-.34a6.44,6.44,0,0,1,1.67-.17h.43a2.45,2.45,0,0,1,.43,0q.47,0,1.19.17a5.92,5.92,0,0,1,1.42.45,3.46,3.46,0,0,1,1.16.82,1.62,1.62,0,0,1,.51,1.25,2.48,2.48,0,0,1-.68,1.67,6.14,6.14,0,0,1-1.73,1.36A13.5,13.5,0,0,1,143,86.2a22.28,22.28,0,0,1-2.86.77,28,28,0,0,1-3,.45,24.05,24.05,0,0,1-2.69.17c-.51,0-1.13,0-1.84,0s-1.42-.06-2.15-.11a18.93,18.93,0,0,1-2.21-.37,7.71,7.71,0,0,1-1.93-.65A4,4,0,0,1,125,85.35a2.62,2.62,0,0,1-.51-1.62ZM171.38,79a12.11,12.11,0,0,1,1.93.17,5.68,5.68,0,0,1,2,.74,4.84,4.84,0,0,1,1.53,1.59,5.42,5.42,0,0,1,.62,2.81,8.57,8.57,0,0,1-.4,2.44,23.23,23.23,0,0,1-.88,2.38,14.17,14.17,0,0,1-1,1.79c-.31.48-.51.74-.57.74s-.14-.11-.14-.31a3.63,3.63,0,0,1,.17-1c.11-.43.26-.88.4-1.42a13.79,13.79,0,0,0,.43-1.79,12.33,12.33,0,0,0,.17-2.1,5.66,5.66,0,0,0-.26-1.84,2.49,2.49,0,0,0-.82-1.16,3,3,0,0,0-1.36-.62,8.6,8.6,0,0,0-1.87-.2,21.81,21.81,0,0,0-3.51.37,39.41,39.41,0,0,0-4.2,1,47.45,47.45,0,0,0-4.48,1.59q-2.3.94-4.42,2l-1.11.6a5.36,5.36,0,0,1-1,.45,4.89,4.89,0,0,1-1,.26,1.46,1.46,0,0,1-.79-.31,1.45,1.45,0,0,1-.43-.6,3,3,0,0,1-.17-.68,5.47,5.47,0,0,1,0-.65,3.58,3.58,0,0,1,.09-.85,11.66,11.66,0,0,1,.31-1.56c.11-.51.26-1,.37-1.36s.26-.74.34-1,.17-.48.23-.6a2.54,2.54,0,0,1,.74-.79,1.61,1.61,0,0,1,.6-.17c.54,0,.82.45.85,1.39a2.67,2.67,0,0,1-.09.45c-.06.17-.2.62-.43,1.3a12.3,12.3,0,0,0-.57,2.66,51.65,51.65,0,0,1,4.88-2.24,52.59,52.59,0,0,1,5.1-1.84,45.27,45.27,0,0,1,4.82-1.28,22.67,22.67,0,0,1,4-.45Zm9.38.71a1,1,0,0,1-.51-.48,1.5,1.5,0,0,1-.26-.85,1.29,1.29,0,0,1,.34-.82c.2-.06.51-.17,1-.28s1-.23,1.64-.34,1.39-.23,2.24-.31a20.61,20.61,0,0,1,2.72-.17l1.3-2.55c.45-.85,1-1.73,1.47-2.58s1.11-1.73,1.7-2.58,1.19-1.62,1.76-2.35,1.11-1.42,1.64-2l1.39-1.56a.83.83,0,0,0,.26-.06l.26,0a1.45,1.45,0,0,1,.85.28,1.26,1.26,0,0,1,.43,1l-.43.62c-.17.23-.48.57-.88,1s-.91,1-1.45,1.73-1.11,1.42-1.73,2.24-1.16,1.7-1.7,2.61c-.43.68-.82,1.36-1.25,2.07s-.77,1.42-1.11,2.07c.57,0,1.16,0,1.76.06s1.19.09,1.76.14l1.67.17c.51.06,1,.14,1.36.2l1.5.28c.57.11,1.13.26,1.7.4l1.56.45,1.16.43c.28.14.43.23.43.31s-.17.23-.51.28a5.19,5.19,0,0,1-1.25.11,1.38,1.38,0,0,1-.34,0H201c-.23,0-.6,0-1.11-.06l-1.76-.09c-.68,0-1.39-.09-2.18-.11l-2.35-.11-2.27-.09c-.74,0-1.42-.06-2-.06q-.38.85-.85,2c-.31.71-.62,1.47-.94,2.24s-.62,1.53-.94,2.27-.6,1.45-.85,2l-.68,1.45c-.2.34-.31.51-.37.51s-.26-.17-.26-.54a6.45,6.45,0,0,1,0-.68c0-.31.09-.65.11-1s.11-.74.17-1.11.14-.71.2-1l.09-.43a10.21,10.21,0,0,1,.28-1.22c.14-.48.31-1,.48-1.53s.34-1.08.51-1.59l.51-1.3c-.65.06-1.3.14-2,.23s-1.19.2-1.73.28-1,.17-1.42.26-.74.17-1,.2Zm49-1.42a1.75,1.75,0,0,1-.74,1.33,7,7,0,0,1-2,1.13,23.56,23.56,0,0,1-2.83,1c-1.08.28-2.18.57-3.34.82q-2.13.47-4.08.77c-1.3.2-2.47.34-3.51.45l-2.61.2q-1.06,0-1.36.09c0,.06,0,.14,0,.26a1.25,1.25,0,0,0,.65,1.08,6.18,6.18,0,0,0,1.67.71,16.23,16.23,0,0,0,2.3.37q1.23.13,2.47.17c.79,0,1.53.09,2.21.11l1.64.09c.48.06.71.11.71.17s-.2.14-.6.23a12.54,12.54,0,0,1-1.56.31c-.62.09-1.3.17-2,.23a17,17,0,0,1-2,.11c-.26,0-.62,0-1.08,0s-.94-.09-1.47-.14a11.79,11.79,0,0,1-1.67-.37,5.57,5.57,0,0,1-1.5-.62,3.82,3.82,0,0,1-1.13-1,2.33,2.33,0,0,1-.43-1.42v-.17h-.79a3.23,3.23,0,0,1-1.64-.34c-.4-.23-.6-.48-.6-.74,0-.43.45-.77,1.33-1h2.55a6.92,6.92,0,0,1,2.13-1.93,23.81,23.81,0,0,1,4-2,32.16,32.16,0,0,1,5.27-1.53,27.55,27.55,0,0,1,6-.62c.43,0,.88,0,1.36.06a4.83,4.83,0,0,1,1.33.34,2.52,2.52,0,0,1,1,.74,1.93,1.93,0,0,1,.4,1.25ZM225.64,78a25.44,25.44,0,0,0-4.34.4,32.89,32.89,0,0,0-4.14,1,28.78,28.78,0,0,0-3.4,1.28,9.19,9.19,0,0,0-2.15,1.25,14.76,14.76,0,0,0,2-.17q1.19-.13,2.55-.34c.88-.11,1.81-.28,2.78-.45s1.93-.37,2.83-.6a26.07,26.07,0,0,0,2.58-.68,16.92,16.92,0,0,0,2.13-.71,3.23,3.23,0,0,0,.54-.26.48.48,0,0,0,.26-.28c0-.09-.14-.17-.4-.26A3,3,0,0,0,226,78Z"/><path d="M124.5,83.74a2.85,2.85,0,0,1,.57-1.73,6.29,6.29,0,0,1,1.37-1.25,8.87,8.87,0,0,1,1.64-.89,14.9,14.9,0,0,1,1.75-.67,34.53,34.53,0,0,1,3.64-.87A19.22,19.22,0,0,1,137.2,78h.07a4.12,4.12,0,0,1,1.06.27,1.51,1.51,0,0,1,.57.4,1.54,1.54,0,0,1,.32.62,1.45,1.45,0,0,1-.36,1.33,3.23,3.23,0,0,1-.91.67l-.1.06h-.13a27,27,0,0,0-7.82,1,6.31,6.31,0,0,0-1.76.69,2.54,2.54,0,0,0-.65.5.35.35,0,0,0-.09.19s0,0,0,.06a1.87,1.87,0,0,0,.69.33,8.66,8.66,0,0,0,.92.23,16.17,16.17,0,0,0,2,.23,32.67,32.67,0,0,0,7.91-.32,34.69,34.69,0,0,0,3.87-.9l.94-.27a8.58,8.58,0,0,0,.87-.38c.55-.27,1.11-.7,1.06-.95l0,.16a1.27,1.27,0,0,0-.6-.47,4.71,4.71,0,0,0-1-.36c-.75-.19-1.51-.37-2.24-.49l-.58-.08a4.64,4.64,0,0,1-.65-.13,1.16,1.16,0,0,1-.23-.1.67.67,0,0,1-.21-.18.58.58,0,0,1-.06-.58.74.74,0,0,1,.29-.3l.18-.1.31-.13a2.21,2.21,0,0,1,.35-.1,7.05,7.05,0,0,1,1.25-.13,10.45,10.45,0,0,1,1.26,0h0l1.06.15a5.24,5.24,0,0,1,1.09.27,6.65,6.65,0,0,1,1,.45,3.89,3.89,0,0,1,.92.74l0,0a2.27,2.27,0,0,1,.63,2.1,3.4,3.4,0,0,1-1,1.79,10,10,0,0,1-3.2,2,11.3,11.3,0,0,1-1.74.57l-1.77.47c-1.18.27-2.39.4-3.59.58a25.11,25.11,0,0,1-7.22-.31l-1.76-.41a7.83,7.83,0,0,1-1.69-.67A4.39,4.39,0,0,1,125,85.41,2.64,2.64,0,0,1,124.5,83.74Zm0,0a2.57,2.57,0,0,0,.56,1.65,3.82,3.82,0,0,0,1.43,1,7.59,7.59,0,0,0,1.69.48c.59.08,1.18.13,1.76.19a58.06,58.06,0,0,0,7.06-.15c1.16-.17,2.33-.3,3.47-.56l1.69-.45a10.53,10.53,0,0,0,1.65-.54,9.07,9.07,0,0,0,2.86-1.74,2.4,2.4,0,0,0,.74-1.26,1.26,1.26,0,0,0-.32-1.19h0l0,0a2.89,2.89,0,0,0-.69-.55,5.76,5.76,0,0,0-.86-.38,4.23,4.23,0,0,0-.91-.22l-1-.14h0c-.28,0-.71,0-1.07,0a6.12,6.12,0,0,0-1.07.11l-.21.06-.23.09-.08,0s0,0,.08-.11a.46.46,0,0,0,0-.44.31.31,0,0,0-.1-.09h0a3.89,3.89,0,0,0,.5.1l.58.08c.81.13,1.57.32,2.33.51a5.71,5.71,0,0,1,1.2.44,2,2,0,0,1,1.1,1l0,.06v.1a1.64,1.64,0,0,1-.66,1.23,5.22,5.22,0,0,1-.94.6,9.56,9.56,0,0,1-1,.43l-1,.29a35.63,35.63,0,0,1-4,.93,33.66,33.66,0,0,1-8.18.33,17,17,0,0,1-2.05-.24,9.63,9.63,0,0,1-1-.26,2.68,2.68,0,0,1-1.09-.58,1.07,1.07,0,0,1-.32-.84,1.35,1.35,0,0,1,.3-.73,3.38,3.38,0,0,1,.93-.74,7.18,7.18,0,0,1,2-.78,28,28,0,0,1,8.12-1.07l-.23.06a2.3,2.3,0,0,0,.63-.45.44.44,0,0,0,.14-.43.55.55,0,0,0-.12-.22.54.54,0,0,0-.21-.13,3.21,3.21,0,0,0-.79-.19h.07a31.31,31.31,0,0,0-3.61.24c-1.22,0-2.39.33-3.61.47a11.5,11.5,0,0,0-3.44,1.15A5.15,5.15,0,0,0,125.1,82,2.74,2.74,0,0,0,124.5,83.74Z"/><path d="M171.38,79a11.72,11.72,0,0,1,3.12.45,5,5,0,0,1,2.53,2,5.94,5.94,0,0,1,.81,3.2,7.77,7.77,0,0,1-.68,3.2l-.57,1.52-.78,1.45a5.65,5.65,0,0,1-.42.7c-.08.12-.16.23-.26.35l-.09.11L175,92l-.11.07a.59.59,0,0,1-.72-.19.71.71,0,0,1-.13-.29,4.51,4.51,0,0,1,.28-1.78c.3-1,.53-2,.74-3a9.88,9.88,0,0,0,0-3,2.35,2.35,0,0,0-.54-1.17,2.43,2.43,0,0,0-1.1-.68,8.59,8.59,0,0,0-2.95-.23,19.09,19.09,0,0,0-3.06.46l-3,.76c-1,.23-2,.66-3,1a27,27,0,0,0-2.91,1.12l-2.84,1.31c-1,.4-1.8,1-2.91,1.41h0a5.28,5.28,0,0,1-1.12.29l-.1,0-.08,0a1.94,1.94,0,0,1-1.06-.45l0,0a2,2,0,0,1-.57-.8c-.07-.28-.15-.56-.2-.84a7.38,7.38,0,0,1,0-.81l.09-.84v0c.15-.68.25-1.39.44-2.05s.37-1.33.59-2v0l.24-.63v0l0,0a3.07,3.07,0,0,1,.89-.95l0,0h0a1.84,1.84,0,0,1,1-.2,1.21,1.21,0,0,1,.94.69,2.5,2.5,0,0,1,.22.88,2.6,2.6,0,0,1-.08.89h0v0l-.32,1c-.11.34-.22.63-.3.94a15.89,15.89,0,0,0-.35,2l-.73-.51,4.54-2.08c.76-.35,1.56-.58,2.33-.88s1.57-.55,2.37-.79a36.1,36.1,0,0,1,4.85-1.11A33.83,33.83,0,0,1,171.38,79Zm0,0a18.68,18.68,0,0,0-4.86.8,43.3,43.3,0,0,0-4.65,1.65c-1.5.68-3.08,1.11-4.59,1.75l-4.46,2-.84.39.12-.89a16.81,16.81,0,0,1,.38-2.08c.09-.35.23-.7.32-1l.32-1v0a1.5,1.5,0,0,0,.06-.55,1.57,1.57,0,0,0-.12-.52c-.07-.13-.09-.13-.17-.14a1,1,0,0,0-.44.12l.06,0a2.14,2.14,0,0,0-.58.64l0,0-.21.56v0c-.23.65-.43,1.3-.59,1.94s-.27,1.29-.42,1.93v0h0l-.06.63a6.47,6.47,0,0,0,0,.66l.14.6a1,1,0,0,0,.28.39l0,0h0a1.17,1.17,0,0,0,.52.17h-.17a4.43,4.43,0,0,0,.92-.22h0c.44-.21.86-.36,1.34-.64a15.67,15.67,0,0,1,1.42-.71l2.89-1.34a27.79,27.79,0,0,1,3-1.15c1-.33,2-.77,3-1l3.1-.78a20,20,0,0,1,3.18-.47,9.54,9.54,0,0,1,3.31.27,3.42,3.42,0,0,1,1.55,1,3.35,3.35,0,0,1,.78,1.65A10.76,10.76,0,0,1,176,87c-.21,1.07-.48,2.13-.76,3.13-.07.25-.15.51-.2.74a2.08,2.08,0,0,0-.06.57.27.27,0,0,0-.05-.11.41.41,0,0,0-.29-.16.55.55,0,0,0-.22,0l-.07,0h0l0,0,.21-.28a5.06,5.06,0,0,0,.39-.66l.72-1.33.53-1.44a12.31,12.31,0,0,0,.77-2.91,5.8,5.8,0,0,0-.37-2.92,4.44,4.44,0,0,0-2.16-2.09A9,9,0,0,0,171.38,79Z"/><path d="M180.77,79.71a1.07,1.07,0,0,1-.54-.47h0a1.56,1.56,0,0,1-.3-.87,1.42,1.42,0,0,1,.32-.89l0,0h0l.91-.31.94-.24c.62-.17,1.26-.28,1.89-.39a16.91,16.91,0,0,1,1.92-.28l1.94-.19-.37.23a33.41,33.41,0,0,1,1.87-3.71c.36-.6.67-1.22,1.06-1.8L191.62,69c.37-.59.81-1.13,1.22-1.69s.81-1.12,1.27-1.66L195.43,64l1.37-1.54.38-.17.1,0,.16,0,.3,0a1.87,1.87,0,0,1,.4.05,2.07,2.07,0,0,1,.69.32,1.38,1.38,0,0,1,.52.73,2.75,2.75,0,0,1,.12.71v.16l-.1.15a13.44,13.44,0,0,1-1.18,1.53L197,67.31c-.79,1-1.56,2-2.28,3s-1.38,2.05-2,3.14-1.24,2.17-1.83,3.26l-.44-.73c1.08,0,2.16.07,3.22.17s2.11.19,3.19.37,2.1.39,3.16.65a26.34,26.34,0,0,1,3.08,1h.05l.29.16a1.16,1.16,0,0,1,.21.15.65.65,0,0,1,.16.24.61.61,0,0,1,0,.23.64.64,0,0,1,0,.15.78.78,0,0,1-.54.52,2.27,2.27,0,0,1-.37.09h0a4.58,4.58,0,0,1-.89.12h-.42a5,5,0,0,1-.52,0h.12c-1,0-2-.09-3-.14l-3-.15c-2-.1-4-.17-5.92-.22l.46-.29c-.72,1.64-1.41,3.29-2.1,5l-1,2.5c-.34.85-.73,1.66-1.11,2.47v0h0l-.21.34a1.55,1.55,0,0,1-.17.22.68.68,0,0,1-.14.11.54.54,0,0,1-.24.08h-.11a.69.69,0,0,1-.32-.11.9.9,0,0,1-.36-.71,2.86,2.86,0,0,1,0-.44c0-.55.08-1,.13-1.52v0l.16-1.1h0v0c.12-.6.23-1.17.41-1.8L185,83l.31-.88.63-1.75c.2-.59.48-1.14.72-1.72l.26.35-1.53.12c-.51,0-1,.11-1.53.17C182.81,79.41,181.78,79.55,180.77,79.71Zm0,0c1-.25,2-.48,3-.69.51-.1,1-.22,1.52-.29l1.53-.24.4-.06-.13.41c-.19.58-.43,1.15-.58,1.75L186,82.36l-.24.89-.17.88-.33,1.83v0L185.11,87v0c-.05.5-.13,1-.13,1.47a2.18,2.18,0,0,0,0,.31c0,.08.08.13-.09,0a.32.32,0,0,0-.14-.05h-.06a.43.43,0,0,0-.2.06l-.06,0,.05-.08.18-.3,0,0c.39-.81.77-1.63,1.1-2.45l1-2.48c.68-1.66,1.38-3.34,2.11-5l.13-.3h.32c2,.05,4,.12,6,.22l3,.15,2.95.14H202a3.62,3.62,0,0,0,.69-.09h0l.2,0c.06,0,0-.07-.1.17a.36.36,0,0,0,0,.08.43.43,0,0,0,0,.16.32.32,0,0,0,.08.12l0,0-.22-.12.05,0a25.37,25.37,0,0,0-3-.94c-1-.25-2-.46-3.07-.63s-2.08-.27-3.13-.36-2.09-.14-3.13-.17l-.82,0,.38-.71c.6-1.12,1.18-2.25,1.85-3.31s1.37-2.14,2.05-3.21,1.52-2,2.32-3l1.21-1.45a12.48,12.48,0,0,0,1.12-1.45l-.09.31a1.79,1.79,0,0,0-.07-.45.38.38,0,0,0-.14-.22,1.07,1.07,0,0,0-.36-.17l-.18,0-.28,0,.16,0-.41.08.38-.17-1.38,1.55-1.29,1.58c-.44.51-.83,1.09-1.25,1.63s-.84,1.09-1.2,1.67c-.76,1.13-1.52,2.27-2.16,3.47l-2,3.6-.12.22h-.25l-1.89,0a16.41,16.41,0,0,0-1.89.13c-.63.06-1.27.12-1.89.24l-.94.16-.93.23.06,0a1.23,1.23,0,0,0-.36.75,1.45,1.45,0,0,0,.21.83h0A1,1,0,0,0,180.77,79.71Z"/><path d="M229.78,78.29a1.68,1.68,0,0,1-.58,1.21,5.63,5.63,0,0,1-1.1.83,15.91,15.91,0,0,1-2.51,1.16l-1.29.54-1.32.41a23.4,23.4,0,0,1-2.66.73c-1.82.32-3.62.71-5.46.89-.91.13-1.83.24-2.75.29s-1.83.14-2.71.19l.43-.49a.75.75,0,0,0,.06.59,1.34,1.34,0,0,0,.48.41,5.64,5.64,0,0,0,1.51.58,27.16,27.16,0,0,0,3.4.42c1.15.09,2.33.14,3.51.2.61,0,1.17,0,1.81.12l.25,0,.16,0,.12,0c0,.06.16,0,.3.37a.53.53,0,0,1-.09.43.59.59,0,0,1-.11.12l-.13.08-.16.07-.26.08c-.3.08-.6.12-.89.19l-.89.18-.89.1c-.59.06-1.17.15-1.78.17a17.42,17.42,0,0,1-3.6,0,12.12,12.12,0,0,1-1.8-.33,6.33,6.33,0,0,1-1.78-.6,4.58,4.58,0,0,1-1.53-1.21,2.92,2.92,0,0,1-.59-2l.5.5c-.44,0-.87,0-1.37,0a3.07,3.07,0,0,1-1.47-.48,1.54,1.54,0,0,1-.63-.73,1.1,1.1,0,0,1,.24-1.11,3.17,3.17,0,0,1,1.37-.76l.07,0h2.64l-.43.24a7.81,7.81,0,0,1,2.4-2.17A22.81,22.81,0,0,1,213,78.13a29.89,29.89,0,0,1,5.84-1.92c.5-.11,1-.23,1.5-.32s1-.13,1.53-.17a23.65,23.65,0,0,1,3.07,0c.51,0,1,.07,1.53.12a5,5,0,0,1,1.5.31,3.21,3.21,0,0,1,1.29.8A1.91,1.91,0,0,1,229.78,78.29Zm0,0a1.88,1.88,0,0,0-.53-1.37,2.89,2.89,0,0,0-1.31-.69,4.82,4.82,0,0,0-1.48-.14,14.08,14.08,0,0,0-1.5.07c-1,.1-2,.23-3,.41l-2.92.61A28.89,28.89,0,0,0,213.41,79a21.83,21.83,0,0,0-2.61,1.39,7,7,0,0,0-2.08,1.84l-.15.24h-2.83l.15,0A2.4,2.4,0,0,0,205,83c-.07.08-.05.1-.05.11a.65.65,0,0,0,.24.24,4.17,4.17,0,0,0,2.29.34H208l0,.5a1.93,1.93,0,0,0,.37,1.34,3.53,3.53,0,0,0,1.22,1,5.38,5.38,0,0,0,1.55.52,11.08,11.08,0,0,0,1.67.31,16.5,16.5,0,0,0,3.44,0c.57,0,1.15-.1,1.73-.16l.87-.1.84-.17c.28-.06.56-.11.83-.17l.17-.05,0,0,0,0a.41.41,0,0,0-.07.08.47.47,0,0,0-.07.38c.13.33.21.26.22.3h0l-.18,0c-.52-.07-1.14-.07-1.71-.11-1.17-.06-2.34-.11-3.53-.2a27.7,27.7,0,0,1-3.59-.45,6.57,6.57,0,0,1-1.77-.68,2.3,2.3,0,0,1-.82-.75,1.61,1.61,0,0,1-.21-1.11l.13-.48.3,0,2.77-.19c.91-.05,1.81-.16,2.71-.29,1.81-.19,3.59-.55,5.37-.9.89-.15,1.79-.34,2.68-.5l1.35-.25,1.31-.34a14.15,14.15,0,0,0,2.59-.84,5.3,5.3,0,0,0,1.13-.76A1.67,1.67,0,0,0,229.78,78.29Z"/><path d="M225.64,78a12.49,12.49,0,0,0-3.6.74c-.58.19-1.19.22-1.78.36s-1.18.25-1.77.4a31.82,31.82,0,0,0-3.42,1.18,10.68,10.68,0,0,0-3.13,1.58l-.33-.88,2-.16,2-.27c1.33-.2,2.66-.39,4-.66l2-.41c.65-.15,1.29-.34,1.94-.5.32-.09.65-.16,1-.27a4.67,4.67,0,0,1,1-.28c.33-.07.66-.12,1-.17s.71-.14.8-.29v0c0,.06,0,0-.06-.06l-.18-.11a1.79,1.79,0,0,0-.41-.15A3.5,3.5,0,0,0,225.64,78Zm0,0a7.73,7.73,0,0,1,.89,0L227,78l.23.07c.07,0,.19,0,.24.25h0v0a.8.8,0,0,1-.39.5l-.45.31c-.3.16-.61.32-.92.47a11,11,0,0,1-2,.63c-.66.17-1.32.36-2,.51l-2,.42c-1.34.27-2.68.47-4,.67l-2,.27-2.08.17-1.59.13,1.26-1a11.33,11.33,0,0,1,3.41-1.75,32.78,32.78,0,0,1,3.55-1.22q.91-.23,1.82-.42a10.57,10.57,0,0,1,1.85-.28C223.16,77.76,224.42,78,225.64,78Z"/><path class="cls-4" d="M232,112.71a13.73,13.73,0,0,1,1.5.09,9.49,9.49,0,0,1,1.56.31,6.05,6.05,0,0,1,1.5.57,5.5,5.5,0,0,1,1.33,1,3.71,3.71,0,0,1,.77.94,8.82,8.82,0,0,1,.43.94,4.75,4.75,0,0,1,.17.77c0,.26,0,.43,0,.6,0,.45-.09.68-.2.68s-.14-.11-.2-.31-.2-.48-.34-.79a7.07,7.07,0,0,0-.57-1,3.79,3.79,0,0,0-1-.94,2.29,2.29,0,0,1-.37-.17,4.82,4.82,0,0,0-.82-.34c-.31-.09-.71-.2-1.16-.28a8,8,0,0,0-1.47-.11,17.16,17.16,0,0,0-4.54.6c-1.45.43-2.89.88-4.34,1.39s-2.89,1-4.39,1.39a18.14,18.14,0,0,1-4.71.62,4.57,4.57,0,0,1-1.11-.2,4.29,4.29,0,0,1-1.28-.57,5,5,0,0,1-1-1,2.57,2.57,0,0,1-.43-1.47,3.2,3.2,0,0,1,.54-1.84,6.26,6.26,0,0,1,1.45-1.42,9.16,9.16,0,0,1,2-1,16.15,16.15,0,0,1,2.27-.71,16.42,16.42,0,0,1,2.18-.43c.71-.09,1.3-.14,1.81-.17h1.59q1.57,0,2.64.17a12.07,12.07,0,0,1,1.3.2,2.59,2.59,0,0,1,.68.57,1.12,1.12,0,0,1,.26.65.78.78,0,0,1-.28.65,2.32,2.32,0,0,1-1.11.4l-1.28-.2a25.93,25.93,0,0,0-2.92-.14,17.82,17.82,0,0,0-3.23.31,20.49,20.49,0,0,0-2.83.74,7.82,7.82,0,0,0-2,1.08,1.58,1.58,0,0,0-.79,1.16.73.73,0,0,0,.2.45,1.49,1.49,0,0,0,.51.28,2.39,2.39,0,0,0,.68.17,6.45,6.45,0,0,0,.74.06,14.91,14.91,0,0,0,4-.57c1.33-.4,2.66-.79,4-1.25s2.72-.88,4.11-1.28a15.62,15.62,0,0,1,4.11-.57Zm13.8,4.45c-.09.11-.17.26-.28.4s-.26.34-.37.48a1.77,1.77,0,0,1-.51.4,1,1,0,0,1-.6.17q-1.19,0-1.19-2a11.74,11.74,0,0,1,.2-2.3,14.42,14.42,0,0,1,.45-1.9c.2-.57.4-1,.57-1.42a9.94,9.94,0,0,1,.43-.91,10,10,0,0,1,.71-.82.83.83,0,0,1,.62-.26.64.64,0,0,1,.45.23,1.5,1.5,0,0,1,.28.79s0,.11-.06.28-.06.26-.09.37l-.23.54a4,4,0,0,0-.28.82c-.09.31-.14.62-.2.94.11-.2.28-.43.45-.68a7,7,0,0,1,.54-.74,38.47,38.47,0,0,1,11.48-9,28.84,28.84,0,0,1,12.84-3c.48,0,.71,0,.71.14s-.45.34-1.36.57l-3.57,1a30.94,30.94,0,0,0-3.43,1.25,43.52,43.52,0,0,0-4,2q-2.08,1.15-4.17,2.55a38,38,0,0,0-3.94,3,28.49,28.49,0,0,0-3.29,3.4,15.55,15.55,0,0,0-2.18,3.69Zm49-20.07h.51a3.8,3.8,0,0,1,.6,0,5.49,5.49,0,0,1,1.13.11,3,3,0,0,1,1.13.4,2.53,2.53,0,0,1,.85.88,2.88,2.88,0,0,1,.34,1.5,4.34,4.34,0,0,1-.85,2.49,13.06,13.06,0,0,1-2.1,2.3,25,25,0,0,1-2.69,2.07c-.94.62-1.81,1.19-2.61,1.7-1.64,1-3.32,2-5,2.78s-3.26,1.67-4.79,2.47c0,.91,0,1.67,0,2.27s0,1.11.06,1.47.06.65.09.88a3.28,3.28,0,0,1,0,.48q0,.34-.09.34t-.26-.34a5.27,5.27,0,0,1-.34-1c-.11-.43-.23-1-.37-1.56a17.56,17.56,0,0,1-.28-2,44.28,44.28,0,0,1-4.59,2c-1.45.54-2.72.94-3.83,1.25a26.94,26.94,0,0,1-2.66.65c-.68.11-1,.2-1.13.2a3.67,3.67,0,0,1-1.39-.23c-.43-.14-.62-.4-.62-.68a.49.49,0,0,1,.06-.23.87.87,0,0,1,.23-.37,1.52,1.52,0,0,1,.51-.4,2.68,2.68,0,0,1,.85-.31s.2-.06.54-.11.82-.14,1.45-.28,1.3-.31,2.13-.54a27.42,27.42,0,0,0,2.69-.91c.82-.34,1.7-.71,2.64-1.13s1.9-.88,2.95-1.42a12.86,12.86,0,0,1,.34-2.83,14.15,14.15,0,0,1,1.08-3.06,12.07,12.07,0,0,1,2.24-3.37,16.74,16.74,0,0,1,3.2-2.61,19.61,19.61,0,0,1,3.8-1.84,21.26,21.26,0,0,1,4.11-1Zm2,3.83a1.61,1.61,0,0,0,.34-.65,2.14,2.14,0,0,0,.09-.48.32.32,0,0,0-.2-.34,2,2,0,0,0-.68-.09,1.17,1.17,0,0,0-.34,0,11.4,11.4,0,0,0-3.15.43,16,16,0,0,0-2.72,1,17.82,17.82,0,0,0-2.13,1.19c-.6.43-1,.74-1.3,1s-.65.54-1.19,1a13.07,13.07,0,0,0-1.62,1.67,5.93,5.93,0,0,0-.68,1.08,9,9,0,0,0-.65,1.39,12.15,12.15,0,0,0-.54,1.53,10,10,0,0,0-.37,1.53c1.39-.71,2.83-1.45,4.28-2.21s2.92-1.62,4.31-2.52l1.87-1.22c.62-.43,1.22-.88,1.79-1.33a19.42,19.42,0,0,0,1.59-1.42,10.35,10.35,0,0,0,1.3-1.47Zm-2.21,13.61a2.66,2.66,0,0,1,.77-1.9,6.74,6.74,0,0,1,1.93-1.39,11.55,11.55,0,0,1,2.58-.94,26.23,26.23,0,0,1,2.72-.6c.91-.14,1.7-.23,2.41-.28s1.25-.09,1.56-.09h.77a2.4,2.4,0,0,1,1.22.43.87.87,0,0,1,.31.71q0,.68-1,1.19h-.51c-.65,0-1.39.06-2.15.11s-1.5.14-2.13.23-1.28.23-2,.4a12.22,12.22,0,0,0-2,.57,6.74,6.74,0,0,0-1.5.77,1.14,1.14,0,0,0-.6.88c0,.31.28.57.82.77a10.17,10.17,0,0,0,1.93.45c.74.09,1.5.17,2.3.2s1.39.06,1.84.06c.65,0,1.45,0,2.32-.11a22.85,22.85,0,0,0,2.66-.34q1.4-.21,2.72-.51a18.21,18.21,0,0,0,2.35-.68,10.09,10.09,0,0,0,1.67-.85,1.23,1.23,0,0,0,.62-1,1.31,1.31,0,0,0-.68-.68,7.81,7.81,0,0,0-1.3-.51,24,24,0,0,0-2.64-.51c-.62-.09-.94-.17-.94-.28s.2-.2.6-.34a6.2,6.2,0,0,1,1.64-.17h.43a2.15,2.15,0,0,1,.43,0,5.63,5.63,0,0,1,1.22.17,5,5,0,0,1,1.39.45,3.81,3.81,0,0,1,1.19.79,1.83,1.83,0,0,1,.48,1.28,2.59,2.59,0,0,1-.65,1.67,6.29,6.29,0,0,1-1.76,1.36,11.56,11.56,0,0,1-2.47,1.08,24.12,24.12,0,0,1-2.89.79,27,27,0,0,1-3,.45,23.26,23.26,0,0,1-2.69.17c-.51,0-1.13,0-1.84,0s-1.42-.06-2.15-.11a18.46,18.46,0,0,1-2.18-.37,7,7,0,0,1-1.93-.65,4.45,4.45,0,0,1-1.39-1.08,2.62,2.62,0,0,1-.51-1.62Z"/></g></g></svg>